<?xml version="1.0" encoding="utf-8"?>
<!-- Generator: Adobe Illustrator 25.4.1, SVG Export Plug-In . SVG Version: 6.00 Build 0)  -->
<svg version="1.1" id="Layer_1" xmlns="http://www.w3.org/2000/svg" xmlns:xlink="http://www.w3.org/1999/xlink" x="0px" y="0px"
	 viewBox="0 0 64 64" style="enable-background:new 0 0 64 64;" xml:space="preserve">
<path d="M8.8955078,17.9619141V58.375c0,0.5527344,0.4477539,1,1,1h11.6987305h11.6982422c0.5522461,0,1-0.4472656,1-1V27.5246582
	l7.4648438,31.0837402C41.8671875,59.0673828,42.2768555,59.375,42.7285156,59.375
	c0.0776367,0,0.1557617-0.0087891,0.234375-0.0273438l11.375-2.7314453c0.2578125-0.0625,0.4804688-0.2236328,0.6191406-0.4501953
	s0.1816406-0.4980469,0.1196289-0.7558594l-9.4365234-39.2958984c-0.1289062-0.5380859-0.6679688-0.8652344-1.2055664-0.7392578
	l-10.1420898,2.4353027V5.625c0-0.5527344-0.4477539-1-1-1H21.5942383c-0.5522461,0-1,0.4472656-1,1v11.3369141H9.8955078
	C9.3432617,16.9619141,8.8955078,17.4091797,8.8955078,17.9619141z M43.9291992,17.5537109l8.9692383,37.3505859
	l-9.4301758,2.2646484l-8.9697266-37.3505859L43.9291992,17.5537109z M22.5942383,6.625h9.6982422v50.75h-9.6982422V17.9619141
	V6.625z M10.8955078,18.9619141h9.6987305V57.375h-9.6987305V18.9619141z" fill="white"/>
<path d="M24.625,10.875h5.3125c0.5522461,0,1-0.4472656,1-1s-0.4477539-1-1-1H24.625c-0.5522461,0-1,0.4472656-1,1
	S24.0727539,10.875,24.625,10.875z" fill="white"/>
<path d="M24.625,55.125h5.3125c0.5522461,0,1-0.4472656,1-1s-0.4477539-1-1-1H24.625c-0.5522461,0-1,0.4472656-1,1
	S24.0727539,55.125,24.625,55.125z" fill="white"/>
<path d="M24.625,50.375h5.3125c0.5522461,0,1-0.4472656,1-1s-0.4477539-1-1-1H24.625c-0.5522461,0-1,0.4472656-1,1
	S24.0727539,50.375,24.625,50.375z" fill="white"/>
<path d="M18.4008789,53.125h-5.3125c-0.5522461,0-1,0.4472656-1,1s0.4477539,1,1,1h5.3125c0.5522461,0,1-0.4472656,1-1
	S18.953125,53.125,18.4008789,53.125z" fill="white"/>
<path d="M18.4008789,21.375h-5.3125c-0.5522461,0-1,0.4472656-1,1s0.4477539,1,1,1h5.3125c0.5522461,0,1-0.4472656,1-1
	S18.953125,21.375,18.4008789,21.375z" fill="white"/>
<path d="M43.5898438,21.2832031c-0.1650391-0.5273438-0.7280273-0.8193359-1.2529297-0.6552734l-5.0708008,1.5859375
	c-0.5273438,0.1650391-0.8208008,0.7255859-0.65625,1.2529297c0.1337891,0.4277344,0.5288086,0.7011719,0.9541016,0.7011719
	c0.0991211,0,0.199707-0.0146484,0.2988281-0.0458984l5.0708008-1.5859375
	C43.4609375,22.3710938,43.7543945,21.8105469,43.5898438,21.2832031z" fill="white"/>
<path d="M44.9199219,54.8261719c0.0776367,0,0.15625-0.0087891,0.234375-0.0273438l5.1655273-1.2412109
	c0.5371094-0.1289062,0.8681641-0.6689453,0.7387695-1.2060547c-0.128418-0.5380859-0.6738281-0.8642578-1.2055664-0.7392578
	L44.6875,52.8535156c-0.5371094,0.1289062-0.8681641,0.6689453-0.7387695,1.2060547
	C44.0585938,54.5185547,44.4682617,54.8261719,44.9199219,54.8261719z" fill="white"/>
</svg>
